<svg width="32" height="15" viewBox="0 0 32 15" fill="none" xmlns="http://www.w3.org/2000/svg">
<rect y="0.618774" width="32" height="13.7143" rx="6.85714" fill="#B20000"/>
<path d="M8.30916 10.6383C7.80576 10.6383 7.354 10.5221 6.95386 10.2898C6.55373 10.051 6.23749 9.72828 6.00516 9.3217C5.77282 8.91511 5.65343 8.45689 5.64697 7.94704V3.53265C5.64697 3.38422 5.69215 3.26482 5.7825 3.17447C5.87931 3.08412 5.9987 3.03894 6.14069 3.03894C6.28912 3.03894 6.40852 3.08412 6.49887 3.17447C6.58922 3.26482 6.6344 3.38422 6.6344 3.53265V6.14644C6.86028 5.87538 7.13134 5.6624 7.44758 5.50751C7.77027 5.34617 8.122 5.2655 8.50277 5.2655C8.9739 5.2655 9.39662 5.38489 9.77094 5.62368C10.1453 5.85602 10.4389 6.17548 10.6519 6.58207C10.8713 6.9822 10.981 7.43719 10.981 7.94704C10.981 8.45689 10.8616 8.91511 10.6228 9.3217C10.3905 9.72828 10.0743 10.051 9.67413 10.2898C9.274 10.5221 8.81901 10.6383 8.30916 10.6383ZM8.30916 9.76701C8.6383 9.76701 8.93195 9.68956 9.1901 9.53467C9.44825 9.37333 9.65154 9.1539 9.79998 8.87639C9.95487 8.59887 10.0323 8.28909 10.0323 7.94704C10.0323 7.59854 9.95487 7.28875 9.79998 7.0177C9.65154 6.74664 9.44825 6.53366 9.1901 6.37877C8.93195 6.21743 8.6383 6.13676 8.30916 6.13676C7.98647 6.13676 7.69282 6.21743 7.42822 6.37877C7.17007 6.53366 6.96677 6.74664 6.81833 7.0177C6.6699 7.28875 6.59568 7.59854 6.59568 7.94704C6.59568 8.28909 6.6699 8.59887 6.81833 8.87639C6.96677 9.1539 7.17007 9.37333 7.42822 9.53467C7.69282 9.68956 7.98647 9.76701 8.30916 9.76701Z" fill="white"/>
<path d="M14.9416 10.6383C14.406 10.6383 13.9284 10.5253 13.5089 10.2994C13.0958 10.0671 12.7699 9.75087 12.5311 9.35074C12.2988 8.94415 12.1826 8.47948 12.1826 7.95672C12.1826 7.42751 12.2924 6.96284 12.5118 6.56271C12.7377 6.15612 13.0474 5.83988 13.4411 5.614C13.8348 5.38166 14.2866 5.2655 14.7964 5.2655C15.2998 5.2655 15.7322 5.37844 16.0936 5.60432C16.455 5.82375 16.7293 6.1303 16.9165 6.52398C17.1101 6.91121 17.2069 7.35975 17.2069 7.8696C17.2069 7.99222 17.165 8.09548 17.0811 8.17938C16.9972 8.25682 16.8907 8.29555 16.7616 8.29555H12.8603V7.52109H16.7326L16.3356 7.79215C16.3292 7.46946 16.2647 7.18227 16.142 6.93057C16.0194 6.67242 15.8452 6.46913 15.6193 6.32069C15.3934 6.17225 15.1191 6.09803 14.7964 6.09803C14.4286 6.09803 14.1123 6.1787 13.8477 6.34005C13.5896 6.50139 13.3927 6.72405 13.2572 7.00802C13.1217 7.28553 13.0539 7.60176 13.0539 7.95672C13.0539 8.31168 13.1346 8.62791 13.2959 8.90543C13.4573 9.18294 13.6799 9.40237 13.9639 9.56371C14.2478 9.72506 14.5738 9.80573 14.9416 9.80573C15.1417 9.80573 15.345 9.77023 15.5515 9.69924C15.7645 9.6218 15.9355 9.53467 16.0646 9.43786C16.1614 9.36687 16.2647 9.33138 16.3744 9.33138C16.4905 9.32492 16.5906 9.35719 16.6745 9.42818C16.7842 9.52499 16.8423 9.63148 16.8487 9.74765C16.8552 9.86381 16.8035 9.96385 16.6938 10.0477C16.4744 10.222 16.2001 10.364 15.871 10.4737C15.5483 10.5834 15.2385 10.6383 14.9416 10.6383Z" fill="white"/>
<path d="M20.3928 10.5995C20.0701 10.5995 19.7796 10.5189 19.5215 10.3575C19.2633 10.1897 19.06 9.96385 18.9116 9.67988C18.7632 9.39592 18.689 9.07645 18.689 8.72149V4.10381C18.689 3.96183 18.7341 3.84566 18.8245 3.75531C18.9148 3.66496 19.031 3.61978 19.173 3.61978C19.315 3.61978 19.4311 3.66496 19.5215 3.75531C19.6118 3.84566 19.657 3.96183 19.657 4.10381V8.72149C19.657 8.97965 19.728 9.19585 19.87 9.3701C20.012 9.54435 20.1862 9.63148 20.3928 9.63148H20.7219C20.8381 9.63148 20.9349 9.67665 21.0123 9.76701C21.0962 9.85736 21.1382 9.97353 21.1382 10.1155C21.1382 10.2575 21.0833 10.3737 20.9736 10.464C20.8703 10.5544 20.7348 10.5995 20.567 10.5995H20.3928ZM18.2436 6.33037C18.1081 6.33037 17.9984 6.29165 17.9145 6.2142C17.8306 6.13676 17.7887 6.03995 17.7887 5.92378C17.7887 5.79471 17.8306 5.69144 17.9145 5.614C17.9984 5.53655 18.1081 5.49783 18.2436 5.49783H20.4799C20.6154 5.49783 20.7251 5.53655 20.809 5.614C20.8929 5.69144 20.9349 5.79471 20.9349 5.92378C20.9349 6.03995 20.8929 6.13676 20.809 6.2142C20.7251 6.29165 20.6154 6.33037 20.4799 6.33037H18.2436Z" fill="white"/>
<path d="M24.559 10.6383C24.0879 10.6383 23.6651 10.5221 23.2908 10.2898C22.9165 10.051 22.6196 9.73151 22.4002 9.33138C22.1872 8.92479 22.0807 8.46657 22.0807 7.95672C22.0807 7.44687 22.1969 6.98865 22.4293 6.58207C22.668 6.17548 22.9875 5.85602 23.3876 5.62368C23.7942 5.38489 24.2492 5.2655 24.7526 5.2655C25.256 5.2655 25.7078 5.38489 26.1079 5.62368C26.508 5.85602 26.8243 6.17548 27.0566 6.58207C27.2954 6.98865 27.4148 7.44687 27.4148 7.95672H27.0373C27.0373 8.46657 26.9275 8.92479 26.7081 9.33138C26.4951 9.73151 26.2015 10.051 25.8272 10.2898C25.4528 10.5221 25.0301 10.6383 24.559 10.6383ZM24.7526 9.76701C25.0818 9.76701 25.3754 9.68956 25.6336 9.53467C25.8917 9.37333 26.095 9.15713 26.2434 8.88607C26.3919 8.60855 26.4661 8.29877 26.4661 7.95672C26.4661 7.60822 26.3919 7.29844 26.2434 7.02738C26.095 6.74986 25.8917 6.53366 25.6336 6.37877C25.3754 6.21743 25.0818 6.13676 24.7526 6.13676C24.4299 6.13676 24.1363 6.21743 23.8717 6.37877C23.6135 6.53366 23.407 6.74986 23.2521 7.02738C23.1037 7.29844 23.0295 7.60822 23.0295 7.95672C23.0295 8.29877 23.1037 8.60855 23.2521 8.88607C23.407 9.15713 23.6135 9.37333 23.8717 9.53467C24.1363 9.68956 24.4299 9.76701 24.7526 9.76701ZM26.9211 10.6092C26.7791 10.6092 26.6597 10.564 26.5629 10.4737C26.4725 10.3769 26.4274 10.2575 26.4274 10.1155V8.63437L26.6113 7.60822L27.4148 7.95672V10.1155C27.4148 10.2575 27.3664 10.3769 27.2696 10.4737C27.1792 10.564 27.0631 10.6092 26.9211 10.6092Z" fill="white"/>
</svg>
